<mxfile host="app.diagrams.net" modified="2021-01-07T19:53:24.301Z" agent="5.0 (Windows NT 10.0; Win64; x64) AppleWebKit/537.36 (KHTML, like Gecko) Chrome/87.0.4280.88 Safari/537.36" etag="Bo6MONyqZonV6O70x7Ih" version="14.0.0" type="github" pages="2">
  <diagram id="dcLGM1l2cDG-i7xf6tQ7" name="Page-1">
    <mxGraphModel dx="1017" dy="469" grid="1" gridSize="10" guides="1" tooltips="1" connect="1" arrows="1" fold="1" page="1" pageScale="1" pageWidth="1654" pageHeight="1169" math="0" shadow="0">
      <root>
        <mxCell id="0" />
        <mxCell id="1" parent="0" />
        <mxCell id="08C9c-8FPTf9hulJ-u3D-1" value="Tjeneste utfall" style="swimlane;html=1;childLayout=stackLayout;resizeParent=1;resizeParentMax=0;horizontal=0;startSize=20;horizontalStack=0;" vertex="1" parent="1">
          <mxGeometry x="110" y="20" width="850" height="375" as="geometry" />
        </mxCell>
        <mxCell id="08C9c-8FPTf9hulJ-u3D-2" value="Sopra Steria" style="swimlane;html=1;startSize=20;horizontal=0;" vertex="1" parent="08C9c-8FPTf9hulJ-u3D-1">
          <mxGeometry x="20" width="830" height="120" as="geometry" />
        </mxCell>
        <mxCell id="08C9c-8FPTf9hulJ-u3D-5" value="hendelse agering vurdering" style="rounded=1;whiteSpace=wrap;html=1;absoluteArcSize=1;arcSize=14;strokeWidth=2;" vertex="1" parent="08C9c-8FPTf9hulJ-u3D-2">
          <mxGeometry x="50" y="30" width="100" height="60" as="geometry" />
        </mxCell>
        <mxCell id="08C9c-8FPTf9hulJ-u3D-6" value="2-dre linje support?" style="rhombus;whiteSpace=wrap;html=1;rounded=1;strokeWidth=2;arcSize=14;" vertex="1" parent="08C9c-8FPTf9hulJ-u3D-2">
          <mxGeometry x="190" y="20" width="80" height="80" as="geometry" />
        </mxCell>
        <mxCell id="08C9c-8FPTf9hulJ-u3D-7" value="" style="edgeStyle=orthogonalEdgeStyle;rounded=0;orthogonalLoop=1;jettySize=auto;html=1;" edge="1" parent="08C9c-8FPTf9hulJ-u3D-2" source="08C9c-8FPTf9hulJ-u3D-5" target="08C9c-8FPTf9hulJ-u3D-6">
          <mxGeometry relative="1" as="geometry" />
        </mxCell>
        <mxCell id="08C9c-8FPTf9hulJ-u3D-8" value="hendelse agering" style="whiteSpace=wrap;html=1;rounded=1;strokeWidth=2;arcSize=14;" vertex="1" parent="08C9c-8FPTf9hulJ-u3D-2">
          <mxGeometry x="290" y="30" width="120" height="60" as="geometry" />
        </mxCell>
        <mxCell id="08C9c-8FPTf9hulJ-u3D-9" value="" style="edgeStyle=orthogonalEdgeStyle;rounded=0;orthogonalLoop=1;jettySize=auto;html=1;" edge="1" parent="08C9c-8FPTf9hulJ-u3D-2" source="08C9c-8FPTf9hulJ-u3D-6" target="08C9c-8FPTf9hulJ-u3D-8">
          <mxGeometry relative="1" as="geometry" />
        </mxCell>
        <mxCell id="08C9c-8FPTf9hulJ-u3D-21" style="edgeStyle=orthogonalEdgeStyle;rounded=0;orthogonalLoop=1;jettySize=auto;html=1;exitX=0;exitY=0.5;exitDx=0;exitDy=0;exitPerimeter=0;entryX=1;entryY=0.5;entryDx=0;entryDy=0;" edge="1" parent="08C9c-8FPTf9hulJ-u3D-2" source="08C9c-8FPTf9hulJ-u3D-19" target="08C9c-8FPTf9hulJ-u3D-8">
          <mxGeometry relative="1" as="geometry" />
        </mxCell>
        <mxCell id="08C9c-8FPTf9hulJ-u3D-19" value="tilstand for:&lt;br&gt;nettverk&lt;br&gt;prosesser&lt;br&gt;tjenester" style="strokeWidth=2;html=1;shape=mxgraph.flowchart.annotation_1;align=left;pointerEvents=1;" vertex="1" parent="08C9c-8FPTf9hulJ-u3D-2">
          <mxGeometry x="470" y="10" width="50" height="100" as="geometry" />
        </mxCell>
        <mxCell id="08C9c-8FPTf9hulJ-u3D-3" value="Appl. forvaltning" style="swimlane;html=1;startSize=20;horizontal=0;" vertex="1" parent="08C9c-8FPTf9hulJ-u3D-1">
          <mxGeometry x="20" y="120" width="830" height="130" as="geometry" />
        </mxCell>
        <mxCell id="08C9c-8FPTf9hulJ-u3D-10" value="hendelse agering vurdering" style="whiteSpace=wrap;html=1;rounded=1;strokeWidth=2;arcSize=14;" vertex="1" parent="08C9c-8FPTf9hulJ-u3D-3">
          <mxGeometry x="170" y="35" width="120" height="60" as="geometry" />
        </mxCell>
        <mxCell id="08C9c-8FPTf9hulJ-u3D-12" value="3-dje linje support" style="rhombus;whiteSpace=wrap;html=1;rounded=1;strokeWidth=2;arcSize=14;" vertex="1" parent="08C9c-8FPTf9hulJ-u3D-3">
          <mxGeometry x="340" y="25" width="80" height="80" as="geometry" />
        </mxCell>
        <mxCell id="08C9c-8FPTf9hulJ-u3D-13" value="" style="edgeStyle=orthogonalEdgeStyle;rounded=0;orthogonalLoop=1;jettySize=auto;html=1;" edge="1" parent="08C9c-8FPTf9hulJ-u3D-3" source="08C9c-8FPTf9hulJ-u3D-10" target="08C9c-8FPTf9hulJ-u3D-12">
          <mxGeometry relative="1" as="geometry" />
        </mxCell>
        <mxCell id="08C9c-8FPTf9hulJ-u3D-16" value="hendelse agering" style="whiteSpace=wrap;html=1;rounded=1;strokeWidth=2;arcSize=14;" vertex="1" parent="08C9c-8FPTf9hulJ-u3D-3">
          <mxGeometry x="480" y="35" width="120" height="60" as="geometry" />
        </mxCell>
        <mxCell id="08C9c-8FPTf9hulJ-u3D-17" value="" style="edgeStyle=orthogonalEdgeStyle;rounded=0;orthogonalLoop=1;jettySize=auto;html=1;" edge="1" parent="08C9c-8FPTf9hulJ-u3D-3" source="08C9c-8FPTf9hulJ-u3D-12" target="08C9c-8FPTf9hulJ-u3D-16">
          <mxGeometry relative="1" as="geometry" />
        </mxCell>
        <mxCell id="08C9c-8FPTf9hulJ-u3D-23" style="edgeStyle=orthogonalEdgeStyle;rounded=0;orthogonalLoop=1;jettySize=auto;html=1;entryX=1;entryY=0.5;entryDx=0;entryDy=0;" edge="1" parent="08C9c-8FPTf9hulJ-u3D-3" source="08C9c-8FPTf9hulJ-u3D-22" target="08C9c-8FPTf9hulJ-u3D-16">
          <mxGeometry relative="1" as="geometry" />
        </mxCell>
        <mxCell id="08C9c-8FPTf9hulJ-u3D-22" value="problem kontekst&lt;br&gt;problem bakgrunn&lt;br&gt;grunndata verifisert&lt;br&gt;faktura og fullmakter utredes" style="strokeWidth=2;html=1;shape=mxgraph.flowchart.annotation_1;align=left;pointerEvents=1;" vertex="1" parent="08C9c-8FPTf9hulJ-u3D-3">
          <mxGeometry x="672" y="15" width="50" height="100" as="geometry" />
        </mxCell>
        <mxCell id="08C9c-8FPTf9hulJ-u3D-4" value="Arribatec/EY Skye" style="swimlane;html=1;startSize=20;horizontal=0;" vertex="1" parent="08C9c-8FPTf9hulJ-u3D-1">
          <mxGeometry x="20" y="250" width="830" height="125" as="geometry" />
        </mxCell>
        <mxCell id="08C9c-8FPTf9hulJ-u3D-14" value="hendelse agering" style="whiteSpace=wrap;html=1;rounded=1;strokeWidth=2;arcSize=14;" vertex="1" parent="08C9c-8FPTf9hulJ-u3D-4">
          <mxGeometry x="320" y="40" width="120" height="60" as="geometry" />
        </mxCell>
        <mxCell id="08C9c-8FPTf9hulJ-u3D-25" style="edgeStyle=orthogonalEdgeStyle;rounded=0;orthogonalLoop=1;jettySize=auto;html=1;exitX=0;exitY=0.5;exitDx=0;exitDy=0;exitPerimeter=0;entryX=1;entryY=0.5;entryDx=0;entryDy=0;" edge="1" parent="08C9c-8FPTf9hulJ-u3D-4" source="08C9c-8FPTf9hulJ-u3D-24" target="08C9c-8FPTf9hulJ-u3D-14">
          <mxGeometry relative="1" as="geometry" />
        </mxCell>
        <mxCell id="08C9c-8FPTf9hulJ-u3D-24" value="dyp dykk&lt;br&gt;foreslå løsning" style="strokeWidth=2;html=1;shape=mxgraph.flowchart.annotation_1;align=left;pointerEvents=1;" vertex="1" parent="08C9c-8FPTf9hulJ-u3D-4">
          <mxGeometry x="490" y="20" width="50" height="100" as="geometry" />
        </mxCell>
        <mxCell id="08C9c-8FPTf9hulJ-u3D-11" value="" style="edgeStyle=orthogonalEdgeStyle;rounded=0;orthogonalLoop=1;jettySize=auto;html=1;" edge="1" parent="08C9c-8FPTf9hulJ-u3D-1" source="08C9c-8FPTf9hulJ-u3D-6" target="08C9c-8FPTf9hulJ-u3D-10">
          <mxGeometry relative="1" as="geometry" />
        </mxCell>
        <mxCell id="08C9c-8FPTf9hulJ-u3D-15" value="" style="edgeStyle=orthogonalEdgeStyle;rounded=0;orthogonalLoop=1;jettySize=auto;html=1;" edge="1" parent="08C9c-8FPTf9hulJ-u3D-1" source="08C9c-8FPTf9hulJ-u3D-12" target="08C9c-8FPTf9hulJ-u3D-14">
          <mxGeometry relative="1" as="geometry" />
        </mxCell>
      </root>
    </mxGraphModel>
  </diagram>
  <diagram id="ncWR7PCAGgmfMmuJD9il" name="Page-2">
    <mxGraphModel dx="1017" dy="469" grid="1" gridSize="10" guides="1" tooltips="1" connect="1" arrows="1" fold="1" page="1" pageScale="1" pageWidth="1654" pageHeight="1169" math="0" shadow="0">
      <root>
        <mxCell id="Z57lthWnfUPxWhWYz1Df-0" />
        <mxCell id="Z57lthWnfUPxWhWYz1Df-1" parent="Z57lthWnfUPxWhWYz1Df-0" />
        <mxCell id="Z57lthWnfUPxWhWYz1Df-27" style="edgeStyle=none;rounded=0;orthogonalLoop=1;jettySize=auto;html=1;entryX=-0.012;entryY=0.507;entryDx=0;entryDy=0;entryPerimeter=0;" edge="1" parent="Z57lthWnfUPxWhWYz1Df-1" source="Z57lthWnfUPxWhWYz1Df-3" target="Z57lthWnfUPxWhWYz1Df-4">
          <mxGeometry relative="1" as="geometry" />
        </mxCell>
        <mxCell id="Z57lthWnfUPxWhWYz1Df-3" value="Basware" style="shape=umlFrame;whiteSpace=wrap;html=1;" vertex="1" parent="Z57lthWnfUPxWhWYz1Df-1">
          <mxGeometry x="150" y="30" width="300" height="300" as="geometry" />
        </mxCell>
        <mxCell id="Z57lthWnfUPxWhWYz1Df-28" value="" style="edgeStyle=none;rounded=0;orthogonalLoop=1;jettySize=auto;html=1;" edge="1" parent="Z57lthWnfUPxWhWYz1Df-1" source="Z57lthWnfUPxWhWYz1Df-4" target="Z57lthWnfUPxWhWYz1Df-6">
          <mxGeometry relative="1" as="geometry" />
        </mxCell>
        <mxCell id="Z57lthWnfUPxWhWYz1Df-4" value="UBW Agresso" style="shape=umlFrame;whiteSpace=wrap;html=1;" vertex="1" parent="Z57lthWnfUPxWhWYz1Df-1">
          <mxGeometry x="560" y="30" width="300" height="300" as="geometry" />
        </mxCell>
        <mxCell id="Z57lthWnfUPxWhWYz1Df-7" style="rounded=0;orthogonalLoop=1;jettySize=auto;html=1;entryX=0.008;entryY=0.477;entryDx=0;entryDy=0;entryPerimeter=0;" edge="1" parent="Z57lthWnfUPxWhWYz1Df-1" source="Z57lthWnfUPxWhWYz1Df-5" target="Z57lthWnfUPxWhWYz1Df-3">
          <mxGeometry relative="1" as="geometry" />
        </mxCell>
        <mxCell id="Z57lthWnfUPxWhWYz1Df-5" value="" style="ellipse;fillColor=#000000;strokeColor=none;" vertex="1" parent="Z57lthWnfUPxWhWYz1Df-1">
          <mxGeometry x="70" y="157" width="30" height="30" as="geometry" />
        </mxCell>
        <mxCell id="Z57lthWnfUPxWhWYz1Df-11" value="" style="edgeStyle=orthogonalEdgeStyle;html=1;verticalAlign=bottom;endArrow=open;endSize=8;strokeColor=#ff0000;" edge="1" source="Z57lthWnfUPxWhWYz1Df-15" parent="Z57lthWnfUPxWhWYz1Df-1">
          <mxGeometry relative="1" as="geometry">
            <mxPoint x="310" y="160" as="targetPoint" />
          </mxGeometry>
        </mxCell>
        <mxCell id="Z57lthWnfUPxWhWYz1Df-13" value="" style="shape=umlLifeline;participant=umlActor;perimeter=lifelinePerimeter;whiteSpace=wrap;html=1;container=1;collapsible=0;recursiveResize=0;verticalAlign=top;spacingTop=36;outlineConnect=0;" vertex="1" parent="Z57lthWnfUPxWhWYz1Df-1">
          <mxGeometry x="190" y="60" width="20" height="300" as="geometry" />
        </mxCell>
        <mxCell id="Z57lthWnfUPxWhWYz1Df-22" value="" style="html=1;points=[];perimeter=orthogonalPerimeter;" vertex="1" parent="Z57lthWnfUPxWhWYz1Df-13">
          <mxGeometry x="5" y="50" width="10" height="80" as="geometry" />
        </mxCell>
        <mxCell id="Z57lthWnfUPxWhWYz1Df-15" value="" style="html=1;points=[];perimeter=orthogonalPerimeter;" vertex="1" parent="Z57lthWnfUPxWhWYz1Df-1">
          <mxGeometry x="305" y="110" width="10" height="80" as="geometry" />
        </mxCell>
        <mxCell id="Z57lthWnfUPxWhWYz1Df-18" value="faktura håndtering" style="shape=umlLifeline;perimeter=lifelinePerimeter;whiteSpace=wrap;html=1;container=1;collapsible=0;recursiveResize=0;outlineConnect=0;" vertex="1" parent="Z57lthWnfUPxWhWYz1Df-1">
          <mxGeometry x="260" y="40" width="100" height="300" as="geometry" />
        </mxCell>
        <mxCell id="Z57lthWnfUPxWhWYz1Df-19" value="bokføring" style="shape=umlLifeline;perimeter=lifelinePerimeter;whiteSpace=wrap;html=1;container=1;collapsible=0;recursiveResize=0;outlineConnect=0;" vertex="1" parent="Z57lthWnfUPxWhWYz1Df-1">
          <mxGeometry x="670" y="40" width="100" height="300" as="geometry" />
        </mxCell>
        <mxCell id="Z57lthWnfUPxWhWYz1Df-24" value="" style="html=1;points=[];perimeter=orthogonalPerimeter;" vertex="1" parent="Z57lthWnfUPxWhWYz1Df-19">
          <mxGeometry x="45" y="70" width="10" height="80" as="geometry" />
        </mxCell>
        <mxCell id="Z57lthWnfUPxWhWYz1Df-6" value="" style="ellipse;html=1;shape=endState;fillColor=#000000;strokeColor=#000000;" vertex="1" parent="Z57lthWnfUPxWhWYz1Df-1">
          <mxGeometry x="900" y="165" width="30" height="30" as="geometry" />
        </mxCell>
        <mxCell id="Z57lthWnfUPxWhWYz1Df-21" value="System" style="shape=umlLifeline;participant=umlActor;perimeter=lifelinePerimeter;whiteSpace=wrap;html=1;container=1;collapsible=0;recursiveResize=0;verticalAlign=top;spacingTop=36;outlineConnect=0;" vertex="1" parent="Z57lthWnfUPxWhWYz1Df-1">
          <mxGeometry x="610" y="50" width="20" height="300" as="geometry" />
        </mxCell>
        <mxCell id="Z57lthWnfUPxWhWYz1Df-23" value="" style="html=1;points=[];perimeter=orthogonalPerimeter;" vertex="1" parent="Z57lthWnfUPxWhWYz1Df-21">
          <mxGeometry x="5" y="60" width="10" height="80" as="geometry" />
        </mxCell>
        <mxCell id="Z57lthWnfUPxWhWYz1Df-25" value="dispatch" style="html=1;verticalAlign=bottom;endArrow=block;" edge="1" parent="Z57lthWnfUPxWhWYz1Df-1" target="Z57lthWnfUPxWhWYz1Df-18">
          <mxGeometry width="80" relative="1" as="geometry">
            <mxPoint x="205" y="110" as="sourcePoint" />
            <mxPoint x="285" y="110" as="targetPoint" />
          </mxGeometry>
        </mxCell>
        <mxCell id="Z57lthWnfUPxWhWYz1Df-26" value="return" style="html=1;verticalAlign=bottom;endArrow=open;dashed=1;endSize=8;" edge="1" parent="Z57lthWnfUPxWhWYz1Df-1" source="Z57lthWnfUPxWhWYz1Df-18">
          <mxGeometry relative="1" as="geometry">
            <mxPoint x="285" y="189.5" as="sourcePoint" />
            <mxPoint x="205" y="189.5" as="targetPoint" />
          </mxGeometry>
        </mxCell>
        <mxCell id="Z57lthWnfUPxWhWYz1Df-29" value="dispatch" style="html=1;verticalAlign=bottom;endArrow=block;" edge="1" parent="Z57lthWnfUPxWhWYz1Df-1">
          <mxGeometry width="80" relative="1" as="geometry">
            <mxPoint x="630" y="110" as="sourcePoint" />
            <mxPoint x="720" y="110" as="targetPoint" />
          </mxGeometry>
        </mxCell>
        <mxCell id="Z57lthWnfUPxWhWYz1Df-30" value="return" style="html=1;verticalAlign=bottom;endArrow=open;dashed=1;endSize=8;" edge="1" parent="Z57lthWnfUPxWhWYz1Df-1">
          <mxGeometry relative="1" as="geometry">
            <mxPoint x="710" y="189.5" as="sourcePoint" />
            <mxPoint x="630" y="189.5" as="targetPoint" />
          </mxGeometry>
        </mxCell>
      </root>
    </mxGraphModel>
  </diagram>
</mxfile>
